%FSDAX24Y24*%
%MOIN*%
%SFA1B1*%

%IPPOS*%
%ADD20R,0.039370X0.137800*%
%ADD21C,0.035000*%
%ADD28C,0.062990*%
%ADD29C,0.118110*%
%ADD30C,0.050000*%
%ADD31R,0.059060X0.133860*%
%LNpcb_potencia_motores-1*%
%LPD*%
G54D20*
X020872Y-000525D03*
X021659D03*
G54D21*
X008780Y001180D02*
X010384D01*
X011560Y002355D02*
Y010700D01*
X014542Y013682*
X013240Y010010D02*
X014990Y011760D01*
X018570Y008830D02*
X021860D01*
X022343Y009313*
Y009892*
X020343D02*
Y013892D01*
X019145Y017090D02*
X022343Y013892D01*
X021114Y016121D02*
X023343Y013892D01*
X021114Y016121D02*
Y017500D01*
X024343Y013892D02*
Y016837D01*
X025005Y017500*
X025343Y013892D02*
Y015869D01*
X026974Y017500*
X015282Y008102D02*
X015992D01*
X016720Y008830*
X017570*
X016970Y009830D02*
X017570D01*
X014990Y011760D02*
X016480D01*
X018410Y009830*
X020280D02*
X020343Y009892D01*
X018410Y009830D02*
X020280D01*
X017530Y002810D02*
Y004840D01*
X013850Y002820D02*
X014260Y003230D01*
Y008340*
X014870Y005180D02*
X017530Y007840D01*
X015520Y004830D02*
X017530Y006840D01*
X016110Y004420D02*
X017530Y005840D01*
X020872Y-000525D02*
Y004702D01*
X020880Y004710*
X004200Y009740D02*
Y017470D01*
X005200D02*
X006200D01*
X005450Y019220D02*
X007200Y017470D01*
X003870Y019220D02*
X005450D01*
X002630Y017980D02*
X003870Y019220D01*
X002630Y001600D02*
Y017980D01*
X006200Y015870D02*
Y017470D01*
Y015870D02*
X006960Y015110D01*
X008840*
X005200Y015620D02*
Y017470D01*
X015980Y010820D02*
X016970Y009830D01*
X014260Y008340D02*
X015240Y009320D01*
Y010820D02*
X015980D01*
X015240Y009320D02*
Y010820D01*
X005200Y015620D02*
X006810Y014010D01*
X008790*
X005200Y009740D02*
X006200D01*
X005200D02*
Y012400D01*
X006810Y014010*
X003630Y001600D02*
Y004270D01*
X006200Y006840*
Y009740*
X004630Y001600D02*
Y003590D01*
X007200Y006160*
Y009740*
X017530Y002810D02*
X018140Y002200D01*
Y-000150D02*
Y002200D01*
X015520Y002710D02*
Y004830D01*
X017230Y-000080D02*
Y001800D01*
X016780Y002250D02*
X017230Y001800D01*
X017050Y-000260D02*
X017230Y-000080D01*
X014870Y002860D02*
Y005180D01*
X011150Y-000150D02*
Y000430D01*
X012150Y-000150D02*
Y000420D01*
X011150Y000430D02*
X012560Y001840D01*
X013850*
X014870Y002860*
X014140Y001330D02*
X015520Y002710D01*
X013060Y001330D02*
X014140D01*
X012150Y000420D02*
X013060Y001330D01*
X013150Y-000150D02*
Y000380D01*
X013500Y000730*
X015150Y-000150D02*
X016150D01*
Y000720D02*
X016500Y001070D01*
X016150Y-000150D02*
Y000720D01*
X013500Y000730D02*
X014330D01*
X016110Y002510*
Y004420*
X014150Y-000150D02*
X014260D01*
X016660Y002250*
X016780*
X018570Y005830D02*
X022560D01*
X025343Y008613*
Y009892*
X018570Y006830D02*
X022360D01*
X024343Y008813*
Y009892*
X018570Y007830D02*
X022060D01*
X023343Y009113*
Y009892*
X021659Y-000525D02*
Y000959D01*
X021880Y001180*
Y004710*
X019996Y015240D02*
X021343Y013892D01*
X018400Y012770D02*
Y014620D01*
X019020Y015240*
X019996*
X019442Y013892D02*
X020343D01*
X019130Y013580D02*
X019442Y013892D01*
X019130Y011840D02*
Y013580D01*
X010404Y001200D02*
X011560Y002355D01*
X022880Y003530D02*
Y004710D01*
Y003530D02*
X023700Y002710D01*
X023760Y002770*
X008780Y-000820D02*
Y000180D01*
G54D28*
X002630Y001600D03*
X003630D03*
X004630D03*
X007200Y017470D03*
X006200D03*
X005200D03*
X004200D03*
X007200Y009740D03*
X006200D03*
X005200D03*
X004200D03*
X008780Y-000820D03*
Y000180D03*
Y001180D03*
X020343Y013892D03*
Y009892D03*
X021343D03*
X022343D03*
X023343D03*
X024343D03*
X025343D03*
X026343D03*
X027343D03*
X021343Y013892D03*
X022343D03*
X023343D03*
X024343D03*
X025343D03*
X026343D03*
X027343D03*
X011150Y-000150D03*
X012150D03*
X013150D03*
X014150D03*
X015150D03*
X016150D03*
X017150D03*
X018150D03*
X018530Y004840D03*
X017530D03*
X018530Y005840D03*
X017530D03*
X018530Y006840D03*
X017530D03*
X018530Y007840D03*
X017530D03*
X018530Y008840D03*
X017530D03*
X018530Y009840D03*
X017530D03*
X022880Y004710D03*
X021880D03*
X020880D03*
X014542Y013682D03*
X015282Y008102D03*
X018400Y012770D03*
X013240Y010010D03*
X013850Y002820D03*
X016780Y002250D03*
X015240Y010820D03*
X011570Y003400D03*
X016500Y001070D03*
X019130Y011840D03*
X023760Y002770D03*
G54D29*
X019145Y017500D03*
X021114D03*
X026974D03*
X025005D03*
G54D30*
X008840Y015110D03*
X008870Y014000D03*
G54D31*
X019946Y-002710D03*
X022584D03*
M02*