%FSDAX24Y24*%
%MOIN*%
%SFA1B1*%

%IPPOS*%
%ADD9500C,0.028000*%
%ADD9501C,0.035430*%
%ADD9502C,0.062990*%
%ADD9503C,0.122050*%
%LNpcb_potencia_motores-1*%
%LPD*%
G54D9500*
X008870Y014000D03*
X008840Y015110D03*
G54D9501*
X002630Y001600D03*
X003630D03*
X004630D03*
X008780Y001180D03*
Y000180D03*
Y-000820D03*
X011150Y-000150D03*
X012150D03*
X013150D03*
X014150D03*
X015150D03*
X016150D03*
X016500Y001070D03*
X016780Y002250D03*
X017150Y-000150D03*
X018150D03*
X018530Y004840D03*
X017530D03*
Y005840D03*
X018530D03*
Y006840D03*
X017530D03*
Y007840D03*
X018530D03*
Y008840D03*
X017530D03*
Y009840D03*
X018530D03*
X020343Y009892D03*
X021343D03*
X022343D03*
X023343D03*
X024343D03*
X025343D03*
X026343D03*
X027343D03*
Y013892D03*
X026343D03*
X025343D03*
X024343D03*
X023343D03*
X022343D03*
X021343D03*
X020343D03*
X018400Y012770D03*
X019130Y011840D03*
X020880Y004710D03*
X021880D03*
X022880D03*
X023760Y002770D03*
X013850Y002820D03*
X011570Y003400D03*
X013240Y010010D03*
X015240Y010820D03*
X015282Y008102D03*
X014542Y013682D03*
X007200Y017470D03*
X006200D03*
X005200D03*
X004200D03*
Y009740D03*
X005200D03*
X006200D03*
X007200D03*
G54D9502*
X019145Y017500D03*
X021114D03*
X025005D03*
X026974D03*
G54D9503*
X006943Y002237D03*
X030469D03*
X006943Y019363D03*
X030469D03*
M02*